<svg xmlns="http://www.w3.org/2000/svg" viewBox="0 0 64 64"><defs><style>.cls-1{fill:#fadf00;}.cls-2{fill:#ffc332;opacity:0.91;}.cls-3{fill:#009ede;}.cls-4{fill:#0083ca;}.cls-5{fill:#fff;}</style></defs><g id="_9.sun" data-name="9.sun"><path class="cls-1" d="M44.05,28.07a10.72,10.72,0,0,1,9.33,3.65C59.19,18.37,41,8,32.54,19.72A14.52,14.52,0,0,1,44.05,28.07Z"/><path class="cls-2" d="M44.05,28.07a10.69,10.69,0,0,1,9.36,3.7c-.45-7.64-8.6-13.13-15.86-10.51A14.57,14.57,0,0,1,44.05,28.07Z"/><path class="cls-3" d="M54.44,44.58c4.77-7.28-1.56-17.73-10.39-16.51-4.94-11.17-21.53-11.17-26.47,0C8.85,26.8,2.37,37.29,7.19,44.58Z"/><path class="cls-4" d="M54.44,44.58a11,11,0,0,0-.18-11.68,11.29,11.29,0,0,0-2.25,0c-.19-.42-.41-.82-.63-1.21l-5.32-3.09H43.5l-1-1-.74-1.48L38.9,24.46A14.53,14.53,0,0,0,25.55,32.9a10.9,10.9,0,0,0-12,11.68Z"/><path class="cls-5" d="M25.75,23.72a1,1,0,0,0,.9,1.79,9.09,9.09,0,0,1,6.56-.61,1,1,0,0,0,1.23-.69C34.67,21.45,27.21,22.7,25.75,23.72Z"/><path class="cls-5" d="M22.77,25.9c-1.41.93-.29,3,1.07,1.8C25.18,26.83,24.1,24.83,22.77,25.9Z"/><path d="M7.57,44.58a1,1,0,0,0,.88-1.48,8.85,8.85,0,0,1-1.09-4.26c0-9.61,13.43-12.28,17.1-3.43a1,1,0,1,0,1.85-.77,11,11,0,0,0-6.86-6.21c4.33-9,18.19-9,22.52,0a10.82,10.82,0,0,0-6.86,6.21,1,1,0,0,0,1.85.77c5.1-11.23,21.59-3.31,16,7.68a1,1,0,1,0,1.75,1,10.9,10.9,0,0,0-1.29-12.3C59.68,18.19,41,7.47,32.39,19.68a14.6,14.6,0,0,0-15,8.34A10.91,10.91,0,0,0,5.36,38.84C5.48,40.5,5.75,44.05,7.57,44.58ZM42.45,16.33a10.24,10.24,0,0,1,9.46,14A10.8,10.8,0,0,0,44,28a14.52,14.52,0,0,0-9.43-7.93A10.21,10.21,0,0,1,42.45,16.33Z"/><path class="cls-5" d="M11.61,35a6,6,0,0,1,7-1.58,1,1,0,0,0,.81-1.82,7.92,7.92,0,0,0-9.29,2.11,1,1,0,0,0,.11,1.4A1,1,0,0,0,11.61,35Z"/><path class="cls-5" d="M9.58,36.38c-1.58-.44-2,3.55-.37,3.46,1.24,0,.92-1.44,1.13-2.27A1,1,0,0,0,9.58,36.38Z"/><path class="cls-5" d="M42.67,19.39c1.52-.07,2.65,1,4,1.47a1,1,0,0,0,.61-1.78c-1.06-.85-5.06-2.92-5.51-.75A1,1,0,0,0,42.67,19.39Z"/><path class="cls-5" d="M39.51,18a7.61,7.61,0,0,0-1.12.62,1,1,0,0,0,.55,1.83c.83-.22,2.37-.83,1.89-1.94A1,1,0,0,0,39.51,18Z"/><path d="M42.45,13.37a1,1,0,0,0,1-1V8.42a1,1,0,0,0-2,0v3.95A1,1,0,0,0,42.45,13.37Z"/><path d="M52.74,17.23a1,1,0,0,0,.71-.29l2.79-2.79a1,1,0,0,0,0-1.42,1,1,0,0,0-1.41,0L52,15.52A1,1,0,0,0,52.74,17.23Z"/><path d="M55.6,26.53a1,1,0,0,0,1,1h3.95a1,1,0,0,0,0-2H56.6A1,1,0,0,0,55.6,26.53Z"/><path d="M31.44,16.94a1,1,0,0,0,1.42-1.42l-2.79-2.79a1,1,0,0,0-1.42,1.42Z"/><path d="M60.45,46.58h-57a1,1,0,0,0,0,2h57A1,1,0,0,0,60.45,46.58Z"/><path d="M51.45,50.58h-39a1,1,0,0,0,0,2h39A1,1,0,0,0,51.45,50.58Z"/><path d="M44.45,54.58h-25a1,1,0,0,0,0,2h25A1,1,0,0,0,44.45,54.58Z"/></g></svg>