<?xml version="1.0" encoding="utf-8"?>
<!-- Generator: Adobe Illustrator 17.0.0, SVG Export Plug-In . SVG Version: 6.00 Build 0)  -->
<!DOCTYPE svg PUBLIC "-//W3C//DTD SVG 1.1//EN" "http://www.w3.org/Graphics/SVG/1.1/DTD/svg11.dtd">
<svg version="1.1" id="Layer_1" xmlns="http://www.w3.org/2000/svg" xmlns:xlink="http://www.w3.org/1999/xlink" x="0px" y="0px"
	 width="50px" height="50px" viewBox="0 0 50 50" enable-background="new 0 0 50 50" xml:space="preserve">
<g>
	<path fill="#616771" d="M33.178,32.157c1.473-2.113,2.343-4.677,2.343-7.448c0-7.204-5.84-13.045-13.045-13.045
		S9.43,17.506,9.43,24.71c0,7.205,5.84,13.045,13.045,13.045c2.838,0,5.457-0.917,7.598-2.456l6.291,6.534l3.181-3.062
		L33.178,32.157z M22.475,32.531c-4.319,0-7.821-3.501-7.821-7.821c0-4.32,3.502-7.821,7.821-7.821c4.319,0,7.821,3.501,7.821,7.821
		C30.296,29.03,26.795,32.531,22.475,32.531z"/>
</g>
</svg>
